# xmcd
#
# Track frame offsets:
#	150
#	16999
#	32253
#	53902
#	79904
#	104510
#	128151
#	138751
#	158049
#	184313
#	202266
#	237540
#	252891
#	271332
#	294391
#
# Disc length: 4068 seconds
#
# Revision: 0
# Processed by: cddbd v1.5.2PL0 Copyright (c) Steve Scherf et al.
# Submitted via: EasyCDDAExtractor 12.0.1.1
#
DISCID=d30fe20f
DTITLE=Gnola Blues Band - 20 Years On the Road 
DYEAR=2010
DGENRE=Blues
TTITLE0=First Step
TTITLE1=Born Under Bad Sign
TTITLE2=Mercury Blues
TTITLE3=Woman Across the River
TTITLE4=Walkin' Through the Shadows of the Blues
TTITLE5=All I Need
TTITLE6=Gnola Shuffle
TTITLE7=I Hear You Knockin'
TTITLE8=Muddy Slide Tribute
TTITLE9=Tulane Avenue Shuffle
TTITLE10=Feels Like Rain
TTITLE11=Roger Boogie
TTITLE12=Honest I Do
TTITLE13=Grab and Scratch
TTITLE14=Sea Notes
EXTD=
EXTT0=
EXTT1=
EXTT2=
EXTT3=
EXTT4=
EXTT5=
EXTT6=
EXTT7=
EXTT8=
EXTT9=
EXTT10=
EXTT11=
EXTT12=
EXTT13=
EXTT14=
PLAYORDER=
